# xmcd
#
# Track frame offsets:
#	150
#	14685
#	27309
#	43615
#	59731
#	79003
#	97137
#	111560
#	136382
#	153765
#	169401
#	182349
#	198984
#
# Disc length: 2843 seconds
#
# Revision: 0
# Processed by: cddbd v1.5.2PL0 Copyright (c) Steve Scherf et al.
# Submitted via: audiograbber 1.82.02
#
DISCID=b40b190d
DTITLE=Brooks and Dunn - Hillbilly Deluxe
DYEAR=2005
DGENRE=Country
TTITLE0=Play Something Country  
TTITLE1=She's About As Lonely As I'm Going To Let Her Get  
TTITLE2=My Heart's Not A Hotel
TTITLE3=Whiskey Do My Talkin'  
TTITLE4=Hillbilly Deluxe  
TTITLE5=One More Roll of the Dice  
TTITLE6=Just Another Neon Night  
TTITLE7=Believe
TTITLE8=Building Bridges  
TTITLE9=Her West Was Wilder  
TTITLE10=I May Get Over You
TTITLE11=She Likes to Get Out of Town  
TTITLE12=Again
EXTD=Dream`Master
EXTT0=
EXTT1=
EXTT2=
EXTT3=
EXTT4=
EXTT5=
EXTT6=
EXTT7=
EXTT8=
EXTT9=
EXTT10=
EXTT11=
EXTT12=
PLAYORDER=
